HIERARCHY
ROOT joint_Root
{
	OFFSET 0.0 0.0 0.0
	CHANNELS 6 Xposition Yposition Zposition Zrotation Xrotation Yrotation 
	JOINT Hips
	{
		OFFSET -0.726466 93.3139 -2.00062
		CHANNELS 6 Xposition Yposition Zposition Zrotation Xrotation Yrotation 
		JOINT Spine
		{
			OFFSET 15.7357 0.0 0.0
			CHANNELS 6 Xposition Yposition Zposition Zrotation Xrotation Yrotation 
			JOINT Chest
			{
				OFFSET 8.98455 -0.406207 0.0
				CHANNELS 6 Xposition Yposition Zposition Zrotation Xrotation Yrotation 
				JOINT Neck
				{
					OFFSET 16.3773 0.0 0.0
					CHANNELS 6 Xposition Yposition Zposition Zrotation Xrotation Yrotation 
					JOINT Head
					{
						OFFSET 6.45672 0.0 0.0
						CHANNELS 6 Xposition Yposition Zposition Zrotation Xrotation Yrotation 
						End Site
						{
							OFFSET 0.0 0.0 0.0
						}
					}
				}
				JOINT Shoulder_L
				{
					OFFSET 12.9942 -0.242716 4.98039
					CHANNELS 6 Xposition Yposition Zposition Zrotation Xrotation Yrotation 
					JOINT UpperArm_L
					{
						OFFSET 5.34809 0.0 0.0
						CHANNELS 6 Xposition Yposition Zposition Zrotation Xrotation Yrotation 
						JOINT LowerArm_L
						{
							OFFSET 24.3286 1.87007e-05 0.0
							CHANNELS 6 Xposition Yposition Zposition Zrotation Xrotation Yrotation 
							JOINT Hand_L
							{
								OFFSET 22.2916 0.0 0.0
								CHANNELS 6 Xposition Yposition Zposition Zrotation Xrotation Yrotation 
								End Site
								{
									OFFSET 0.0 0.0 0.0
								}
							}
						}
					}
				}
				JOINT Shoulder_R
				{
					OFFSET 12.9945 -0.242716 -4.98039
					CHANNELS 6 Xposition Yposition Zposition Zrotation Xrotation Yrotation 
					JOINT UpperArm_R
					{
						OFFSET -5.34813 0.0 0.0
						CHANNELS 6 Xposition Yposition Zposition Zrotation Xrotation Yrotation 
						JOINT LowerArm_R
						{
							OFFSET -24.3289 0.000322201 0.0
							CHANNELS 6 Xposition Yposition Zposition Zrotation Xrotation Yrotation 
							JOINT Hand_R
							{
								OFFSET -22.2915 -0.000108084 0.0
								CHANNELS 6 Xposition Yposition Zposition Zrotation Xrotation Yrotation 
								End Site
								{
									OFFSET 0.0 0.0 0.0
								}
							}
						}
					}
				}
			}
		}
		JOINT UpperLeg_L
		{
			OFFSET -2.19248 -6.46944 0.0
			CHANNELS 6 Xposition Yposition Zposition Zrotation Xrotation Yrotation 
			JOINT LowerLeg_L
			{
				OFFSET 39.0811 0.0 -1.23785e-05
				CHANNELS 6 Xposition Yposition Zposition Zrotation Xrotation Yrotation 
				JOINT Foot_L
				{
					OFFSET 40.9854 0.0 -1.26872e-05
					CHANNELS 6 Xposition Yposition Zposition Zrotation Xrotation Yrotation 
					JOINT Toes_L
					{
						OFFSET 11.7543 0.0 0.0
						CHANNELS 6 Xposition Yposition Zposition Zrotation Xrotation Yrotation 
						End Site
						{
							OFFSET 0.0 0.0 0.0
						}
					}
				}
			}
		}
		JOINT UpperLeg_R
		{
			OFFSET -2.19251 6.46944 0.0
			CHANNELS 6 Xposition Yposition Zposition Zrotation Xrotation Yrotation 
			JOINT LowerLeg_R
			{
				OFFSET -39.0811 -0.00228153 -0.0401928
				CHANNELS 6 Xposition Yposition Zposition Zrotation Xrotation Yrotation 
				JOINT Foot_R
				{
					OFFSET -40.9854 0.0 0.0
					CHANNELS 6 Xposition Yposition Zposition Zrotation Xrotation Yrotation 
					JOINT Toes_R
					{
						OFFSET -11.7543 0.0 0.0
						CHANNELS 6 Xposition Yposition Zposition Zrotation Xrotation Yrotation 
						End Site
						{
							OFFSET 0.0 0.0 0.0
						}
					}
				}
			}
		}
	}
}
MOTION
Frames:	4
Frame Time:	0.0333333
0.000000 0.000000 0.000000 0.000000 0.000000 -0.000000 -203.225000 90.371200 189.193000 53.985800 82.205800 39.908800 15.735700 0.000005 -0.000001 82.811200 81.652900 -82.168800 8.984550 -0.406207 -0.000000 8.813290 -2.072690 1.443690 16.377300 -0.000001 -0.000001 10.069500 1.009370 -1.631820 6.456720 -0.000001 -0.000000 5.188550 3.021320 0.799303 12.994200 -0.242716 4.980390 -87.737600 -5.556260 -67.802200 5.348090 -0.000007 -0.000001 -52.885100 29.612800 -26.247200 24.328600 0.000019 0.000005 4.403350 3.896780 -48.571200 22.291600 -0.000001 0.000005 4.205150 5.602300 -11.479300 12.994500 -0.242716 -4.980390 89.883200 0.279601 -67.315700 -5.348130 -0.000001 -0.000004 -63.737300 31.242100 -4.405220 -24.328900 0.000322 -0.000009 3.779950 5.960870 -32.471800 -22.291500 -0.000108 -0.000004 2.405960 5.565700 -9.469660 -2.192480 -6.469440 -0.000000 -174.367000 -8.541400 -2.902650 39.081100 -0.000007 -0.000012 -0.015632 0.024611 32.423500 40.985400 -0.000006 -0.000013 1.678850 -4.867610 -75.531000 11.754300 -0.000000 0.000003 -1.560360 -2.052400 -15.334000 -2.192510 6.469440 -0.000001 178.635000 17.333000 162.088000 -39.081100 -0.002282 -0.040193 0.165923 -0.108177 56.381100 -40.985400 0.000008 0.000006 0.305226 -1.956130 -55.355600 -11.754300 -0.000006 -0.000006 -0.021116 -0.173394 -23.659500
0.000000 0.000000 0.000000 0.000000 0.000000 -0.000000 -200.637000 90.734800 189.261000 47.650300 82.725600 45.861900 15.735700 0.000005 -0.000001 79.557700 81.692900 -78.663800 8.984550 -0.406207 -0.000000 8.605790 -2.990120 2.011620 16.377300 -0.000001 -0.000001 10.501000 0.722295 -1.674970 6.456720 -0.000001 -0.000000 5.239260 3.428940 0.698726 12.994200 -0.242716 4.980390 -87.585200 -6.105490 -68.371900 5.348090 -0.000007 -0.000001 -50.750900 28.043900 -29.803000 24.328600 0.000019 0.000005 4.530530 3.717200 -50.710400 22.291600 -0.000001 0.000005 4.397070 5.602850 -11.514600 12.994500 -0.242716 -4.980390 90.003200 -0.007309 -66.484700 -5.348130 -0.000001 -0.000004 -64.224500 30.100500 -1.609800 -24.328900 0.000322 -0.000009 3.726090 5.897480 -32.375000 -22.291500 -0.000108 -0.000004 1.762650 5.561690 -9.270180 -2.192480 -6.469440 -0.000000 -174.115000 -7.787510 0.016299 39.081100 -0.000007 -0.000012 0.050328 -0.090057 29.198000 40.985400 -0.000006 -0.000013 2.641620 -4.926920 -74.824900 11.754300 -0.000000 0.000003 -1.508430 -1.935920 -16.156900 -2.192510 6.469440 -0.000001 -178.815000 19.565000 159.607000 -39.081100 -0.002282 -0.040193 0.103334 -0.089870 48.076800 -40.985400 0.000008 0.000006 -0.213194 -1.676530 -56.422300 -11.754300 -0.000006 -0.000006 -0.021692 -0.176487 -23.787000
0.000000 0.000000 0.000000 0.000000 0.000000 -0.000000 -198.153000 90.705700 189.348000 43.031600 83.322300 49.824200 15.735700 0.000005 -0.000001 76.582800 81.725800 -75.541300 8.984550 -0.406207 -0.000000 8.380190 -3.816580 2.361370 16.377300 -0.000001 -0.000001 10.687800 0.442658 -1.670390 6.456720 -0.000001 -0.000000 5.168570 3.786230 0.531393 12.994200 -0.242716 4.980390 -87.528000 -6.393710 -68.810000 5.348090 -0.000007 -0.000001 -48.403300 26.460500 -32.930900 24.328600 0.000019 0.000005 4.174860 3.159700 -52.944900 22.291600 -0.000001 0.000005 4.775890 5.603460 -11.550300 12.994500 -0.242716 -4.980390 90.095800 -0.213224 -65.809200 -5.348130 -0.000001 -0.000004 -64.186900 29.434300 0.507000 -24.328900 0.000322 -0.000009 3.828440 6.045580 -32.438600 -22.291500 -0.000108 -0.000004 1.541550 5.560720 -9.222650 -2.192480 -6.469440 -0.000000 -174.106000 -6.975010 1.905280 39.081100 -0.000007 -0.000012 0.046578 -0.089927 27.382000 40.985400 -0.000006 -0.000013 2.500870 -4.772020 -74.730300 11.754300 -0.000000 0.000003 -1.762170 -2.240210 -16.835500 -2.192510 6.469440 -0.000001 -176.438000 21.005300 157.199000 -39.081100 -0.002282 -0.040193 0.054635 -0.064324 38.602000 -40.985400 0.000008 0.000006 -1.002800 -1.543390 -55.554300 -11.754300 -0.000006 -0.000006 -0.021445 -0.175167 -23.732600
0.000000 0.000000 0.000000 0.000000 0.000000 -0.000000 -195.599000 90.323600 189.499000 38.869500 84.199900 53.328000 15.735700 0.000005 -0.000001 73.886500 81.691700 -72.820900 8.984550 -0.406207 -0.000000 8.261350 -4.586470 2.461570 16.377300 -0.000001 -0.000001 10.668500 0.146247 -1.548090 6.456720 -0.000001 -0.000000 4.972820 4.016860 0.463186 12.994200 -0.242716 4.980390 -87.517100 -6.552770 -69.194400 5.348090 -0.000007 -0.000001 -46.209600 24.716800 -35.477200 24.328600 0.000019 0.000005 3.974900 2.753000 -55.348400 22.291600 -0.000001 0.000005 4.873090 5.605450 -11.673000 12.994500 -0.242716 -4.980390 90.133500 -0.288085 -65.128700 -5.348130 -0.000001 -0.000004 -63.847600 29.069600 2.143140 -24.328900 0.000322 -0.000009 3.912500 6.105870 -32.747900 -22.291500 -0.000108 -0.000004 1.360210 5.559080 -9.141550 -2.192480 -6.469440 -0.000000 -174.322000 -6.379160 3.530610 39.081100 -0.000007 -0.000012 0.044628 -0.090322 26.293900 40.985400 -0.000006 -0.000013 2.152590 -4.468540 -75.603700 11.754300 -0.000000 0.000003 -1.821730 -2.297970 -17.179300 -2.192510 6.469440 -0.000001 -174.431000 21.965300 155.361000 -39.081100 -0.002282 -0.040193 0.022343 -0.034903 28.611000 -40.985400 0.000008 0.000006 -1.460790 -0.996991 -55.061100 -11.754300 -0.000006 -0.000006 -0.021704 -0.176548 -23.789500
